<?xml version="1.0" encoding="utf-8" standalone="no"?>
<!DOCTYPE svg PUBLIC "-//W3C//DTD SVG 1.1//EN"
  "http://www.w3.org/Graphics/SVG/1.1/DTD/svg11.dtd">
<svg xmlns:xlink="http://www.w3.org/1999/xlink" width="1105.92pt" height="543.168pt" viewBox="0 0 1105.92 543.168" xmlns="http://www.w3.org/2000/svg" version="1.1">
 <metadata>
  <rdf:RDF xmlns:dc="http://purl.org/dc/elements/1.1/" xmlns:cc="http://creativecommons.org/ns#" xmlns:rdf="http://www.w3.org/1999/02/22-rdf-syntax-ns#">
   <cc:Work>
    <dc:type rdf:resource="http://purl.org/dc/dcmitype/StillImage"/>
    <dc:date>2025-01-24T10:16:42.397280</dc:date>
    <dc:format>image/svg+xml</dc:format>
    <dc:creator>
     <cc:Agent>
      <dc:title>Matplotlib v3.10.0, https://matplotlib.org/</dc:title>
     </cc:Agent>
    </dc:creator>
   </cc:Work>
  </rdf:RDF>
 </metadata>
 <defs>
  <style type="text/css">*{stroke-linejoin: round; stroke-linecap: butt}</style>
 </defs>
 <g id="figure_1">
  <g id="patch_1">
   <path d="M 0 543.168 
L 1105.92 543.168 
L 1105.92 0 
L 0 0 
z
" style="fill: #ffffff"/>
  </g>
  <g id="axes_1">
   <g id="patch_2">
    <path d="M 138.24 483.41952 
L 995.328 483.41952 
L 995.328 65.18016 
L 138.24 65.18016 
z
" style="fill: #ffffff"/>
   </g>
   <g id="PathCollection_1">
    <defs>
     <path id="mbf046b03ff" d="M 0 0.707107 
C 0.187527 0.707107 0.367398 0.632602 0.5 0.5 
C 0.632602 0.367398 0.707107 0.187527 0.707107 0 
C 0.707107 -0.187527 0.632602 -0.367398 0.5 -0.5 
C 0.367398 -0.632602 0.187527 -0.707107 0 -0.707107 
C -0.187527 -0.707107 -0.367398 -0.632602 -0.5 -0.5 
C -0.632602 -0.367398 -0.707107 -0.187527 -0.707107 0 
C -0.707107 0.187527 -0.632602 0.367398 -0.5 0.5 
C -0.367398 0.632602 -0.187527 0.707107 0 0.707107 
z
" style="stroke: #0000ff"/>
    </defs>
    <g clip-path="url(#pe47c9eeaff)">
     <use xlink:href="#mbf046b03ff" x="177.198545" y="174.71904" style="fill: #0000ff; stroke: #0000ff"/>
     <use xlink:href="#mbf046b03ff" x="177.198545" y="446.30304" style="fill: #0000ff; stroke: #0000ff"/>
     <use xlink:href="#mbf046b03ff" x="177.198545" y="401.03904" style="fill: #0000ff; stroke: #0000ff"/>
     <use xlink:href="#mbf046b03ff" x="177.198545" y="328.61664" style="fill: #0000ff; stroke: #0000ff"/>
     <use xlink:href="#mbf046b03ff" x="177.198545" y="446.30304" style="fill: #0000ff; stroke: #0000ff"/>
     <use xlink:href="#mbf046b03ff" x="177.198545" y="346.72224" style="fill: #0000ff; stroke: #0000ff"/>
     <use xlink:href="#mbf046b03ff" x="177.198545" y="464.40864" style="fill: #0000ff; stroke: #0000ff"/>
     <use xlink:href="#mbf046b03ff" x="177.198545" y="373.88064" style="fill: #0000ff; stroke: #0000ff"/>
     <use xlink:href="#mbf046b03ff" x="177.198545" y="364.82784" style="fill: #0000ff; stroke: #0000ff"/>
     <use xlink:href="#mbf046b03ff" x="177.198545" y="428.19744" style="fill: #0000ff; stroke: #0000ff"/>
     <use xlink:href="#mbf046b03ff" x="232.85361" y="391.98624" style="fill: #0000ff; stroke: #0000ff"/>
     <use xlink:href="#mbf046b03ff" x="232.85361" y="328.61664" style="fill: #0000ff; stroke: #0000ff"/>
     <use xlink:href="#mbf046b03ff" x="232.85361" y="192.82464" style="fill: #0000ff; stroke: #0000ff"/>
     <use xlink:href="#mbf046b03ff" x="232.85361" y="274.29984" style="fill: #0000ff; stroke: #0000ff"/>
     <use xlink:href="#mbf046b03ff" x="232.85361" y="355.77504" style="fill: #0000ff; stroke: #0000ff"/>
     <use xlink:href="#mbf046b03ff" x="232.85361" y="355.77504" style="fill: #0000ff; stroke: #0000ff"/>
     <use xlink:href="#mbf046b03ff" x="232.85361" y="274.29984" style="fill: #0000ff; stroke: #0000ff"/>
     <use xlink:href="#mbf046b03ff" x="232.85361" y="337.66944" style="fill: #0000ff; stroke: #0000ff"/>
     <use xlink:href="#mbf046b03ff" x="232.85361" y="229.03584" style="fill: #0000ff; stroke: #0000ff"/>
     <use xlink:href="#mbf046b03ff" x="232.85361" y="319.56384" style="fill: #0000ff; stroke: #0000ff"/>
     <use xlink:href="#mbf046b03ff" x="288.508675" y="265.24704" style="fill: #0000ff; stroke: #0000ff"/>
     <use xlink:href="#mbf046b03ff" x="288.508675" y="265.24704" style="fill: #0000ff; stroke: #0000ff"/>
     <use xlink:href="#mbf046b03ff" x="288.508675" y="247.14144" style="fill: #0000ff; stroke: #0000ff"/>
     <use xlink:href="#mbf046b03ff" x="288.508675" y="391.98624" style="fill: #0000ff; stroke: #0000ff"/>
     <use xlink:href="#mbf046b03ff" x="288.508675" y="256.19424" style="fill: #0000ff; stroke: #0000ff"/>
     <use xlink:href="#mbf046b03ff" x="288.508675" y="319.56384" style="fill: #0000ff; stroke: #0000ff"/>
     <use xlink:href="#mbf046b03ff" x="288.508675" y="292.40544" style="fill: #0000ff; stroke: #0000ff"/>
     <use xlink:href="#mbf046b03ff" x="288.508675" y="301.45824" style="fill: #0000ff; stroke: #0000ff"/>
     <use xlink:href="#mbf046b03ff" x="288.508675" y="238.08864" style="fill: #0000ff; stroke: #0000ff"/>
     <use xlink:href="#mbf046b03ff" x="288.508675" y="292.40544" style="fill: #0000ff; stroke: #0000ff"/>
     <use xlink:href="#mbf046b03ff" x="344.16374" y="229.03584" style="fill: #0000ff; stroke: #0000ff"/>
     <use xlink:href="#mbf046b03ff" x="344.16374" y="301.45824" style="fill: #0000ff; stroke: #0000ff"/>
     <use xlink:href="#mbf046b03ff" x="344.16374" y="265.24704" style="fill: #0000ff; stroke: #0000ff"/>
     <use xlink:href="#mbf046b03ff" x="344.16374" y="229.03584" style="fill: #0000ff; stroke: #0000ff"/>
     <use xlink:href="#mbf046b03ff" x="344.16374" y="201.87744" style="fill: #0000ff; stroke: #0000ff"/>
     <use xlink:href="#mbf046b03ff" x="344.16374" y="337.66944" style="fill: #0000ff; stroke: #0000ff"/>
     <use xlink:href="#mbf046b03ff" x="344.16374" y="147.56064" style="fill: #0000ff; stroke: #0000ff"/>
     <use xlink:href="#mbf046b03ff" x="344.16374" y="283.35264" style="fill: #0000ff; stroke: #0000ff"/>
     <use xlink:href="#mbf046b03ff" x="344.16374" y="238.08864" style="fill: #0000ff; stroke: #0000ff"/>
     <use xlink:href="#mbf046b03ff" x="344.16374" y="238.08864" style="fill: #0000ff; stroke: #0000ff"/>
     <use xlink:href="#mbf046b03ff" x="399.818805" y="201.87744" style="fill: #0000ff; stroke: #0000ff"/>
     <use xlink:href="#mbf046b03ff" x="399.818805" y="283.35264" style="fill: #0000ff; stroke: #0000ff"/>
     <use xlink:href="#mbf046b03ff" x="399.818805" y="219.98304" style="fill: #0000ff; stroke: #0000ff"/>
     <use xlink:href="#mbf046b03ff" x="399.818805" y="229.03584" style="fill: #0000ff; stroke: #0000ff"/>
     <use xlink:href="#mbf046b03ff" x="399.818805" y="174.71904" style="fill: #0000ff; stroke: #0000ff"/>
     <use xlink:href="#mbf046b03ff" x="399.818805" y="247.14144" style="fill: #0000ff; stroke: #0000ff"/>
     <use xlink:href="#mbf046b03ff" x="399.818805" y="301.45824" style="fill: #0000ff; stroke: #0000ff"/>
     <use xlink:href="#mbf046b03ff" x="399.818805" y="183.77184" style="fill: #0000ff; stroke: #0000ff"/>
     <use xlink:href="#mbf046b03ff" x="399.818805" y="120.40224" style="fill: #0000ff; stroke: #0000ff"/>
     <use xlink:href="#mbf046b03ff" x="399.818805" y="174.71904" style="fill: #0000ff; stroke: #0000ff"/>
     <use xlink:href="#mbf046b03ff" x="455.47387" y="247.14144" style="fill: #0000ff; stroke: #0000ff"/>
     <use xlink:href="#mbf046b03ff" x="455.47387" y="229.03584" style="fill: #0000ff; stroke: #0000ff"/>
     <use xlink:href="#mbf046b03ff" x="455.47387" y="292.40544" style="fill: #0000ff; stroke: #0000ff"/>
     <use xlink:href="#mbf046b03ff" x="455.47387" y="301.45824" style="fill: #0000ff; stroke: #0000ff"/>
     <use xlink:href="#mbf046b03ff" x="455.47387" y="274.29984" style="fill: #0000ff; stroke: #0000ff"/>
     <use xlink:href="#mbf046b03ff" x="455.47387" y="192.82464" style="fill: #0000ff; stroke: #0000ff"/>
     <use xlink:href="#mbf046b03ff" x="455.47387" y="274.29984" style="fill: #0000ff; stroke: #0000ff"/>
     <use xlink:href="#mbf046b03ff" x="455.47387" y="165.66624" style="fill: #0000ff; stroke: #0000ff"/>
     <use xlink:href="#mbf046b03ff" x="455.47387" y="238.08864" style="fill: #0000ff; stroke: #0000ff"/>
     <use xlink:href="#mbf046b03ff" x="455.47387" y="247.14144" style="fill: #0000ff; stroke: #0000ff"/>
     <use xlink:href="#mbf046b03ff" x="511.128935" y="210.93024" style="fill: #0000ff; stroke: #0000ff"/>
     <use xlink:href="#mbf046b03ff" x="511.128935" y="219.98304" style="fill: #0000ff; stroke: #0000ff"/>
     <use xlink:href="#mbf046b03ff" x="511.128935" y="274.29984" style="fill: #0000ff; stroke: #0000ff"/>
     <use xlink:href="#mbf046b03ff" x="511.128935" y="247.14144" style="fill: #0000ff; stroke: #0000ff"/>
     <use xlink:href="#mbf046b03ff" x="511.128935" y="138.50784" style="fill: #0000ff; stroke: #0000ff"/>
     <use xlink:href="#mbf046b03ff" x="511.128935" y="301.45824" style="fill: #0000ff; stroke: #0000ff"/>
     <use xlink:href="#mbf046b03ff" x="511.128935" y="183.77184" style="fill: #0000ff; stroke: #0000ff"/>
     <use xlink:href="#mbf046b03ff" x="511.128935" y="292.40544" style="fill: #0000ff; stroke: #0000ff"/>
     <use xlink:href="#mbf046b03ff" x="511.128935" y="111.34944" style="fill: #0000ff; stroke: #0000ff"/>
     <use xlink:href="#mbf046b03ff" x="511.128935" y="238.08864" style="fill: #0000ff; stroke: #0000ff"/>
     <use xlink:href="#mbf046b03ff" x="566.784" y="292.40544" style="fill: #0000ff; stroke: #0000ff"/>
     <use xlink:href="#mbf046b03ff" x="566.784" y="247.14144" style="fill: #0000ff; stroke: #0000ff"/>
     <use xlink:href="#mbf046b03ff" x="566.784" y="120.40224" style="fill: #0000ff; stroke: #0000ff"/>
     <use xlink:href="#mbf046b03ff" x="566.784" y="238.08864" style="fill: #0000ff; stroke: #0000ff"/>
     <use xlink:href="#mbf046b03ff" x="566.784" y="84.19104" style="fill: #0000ff; stroke: #0000ff"/>
     <use xlink:href="#mbf046b03ff" x="566.784" y="210.93024" style="fill: #0000ff; stroke: #0000ff"/>
     <use xlink:href="#mbf046b03ff" x="566.784" y="247.14144" style="fill: #0000ff; stroke: #0000ff"/>
     <use xlink:href="#mbf046b03ff" x="566.784" y="201.87744" style="fill: #0000ff; stroke: #0000ff"/>
     <use xlink:href="#mbf046b03ff" x="566.784" y="192.82464" style="fill: #0000ff; stroke: #0000ff"/>
     <use xlink:href="#mbf046b03ff" x="566.784" y="265.24704" style="fill: #0000ff; stroke: #0000ff"/>
     <use xlink:href="#mbf046b03ff" x="622.439065" y="283.35264" style="fill: #0000ff; stroke: #0000ff"/>
     <use xlink:href="#mbf046b03ff" x="622.439065" y="156.61344" style="fill: #0000ff; stroke: #0000ff"/>
     <use xlink:href="#mbf046b03ff" x="622.439065" y="111.34944" style="fill: #0000ff; stroke: #0000ff"/>
     <use xlink:href="#mbf046b03ff" x="622.439065" y="274.29984" style="fill: #0000ff; stroke: #0000ff"/>
     <use xlink:href="#mbf046b03ff" x="622.439065" y="219.98304" style="fill: #0000ff; stroke: #0000ff"/>
     <use xlink:href="#mbf046b03ff" x="622.439065" y="174.71904" style="fill: #0000ff; stroke: #0000ff"/>
     <use xlink:href="#mbf046b03ff" x="622.439065" y="265.24704" style="fill: #0000ff; stroke: #0000ff"/>
     <use xlink:href="#mbf046b03ff" x="622.439065" y="292.40544" style="fill: #0000ff; stroke: #0000ff"/>
     <use xlink:href="#mbf046b03ff" x="622.439065" y="238.08864" style="fill: #0000ff; stroke: #0000ff"/>
     <use xlink:href="#mbf046b03ff" x="622.439065" y="183.77184" style="fill: #0000ff; stroke: #0000ff"/>
     <use xlink:href="#mbf046b03ff" x="678.09413" y="174.71904" style="fill: #0000ff; stroke: #0000ff"/>
     <use xlink:href="#mbf046b03ff" x="678.09413" y="310.51104" style="fill: #0000ff; stroke: #0000ff"/>
     <use xlink:href="#mbf046b03ff" x="678.09413" y="292.40544" style="fill: #0000ff; stroke: #0000ff"/>
     <use xlink:href="#mbf046b03ff" x="678.09413" y="219.98304" style="fill: #0000ff; stroke: #0000ff"/>
     <use xlink:href="#mbf046b03ff" x="678.09413" y="201.87744" style="fill: #0000ff; stroke: #0000ff"/>
     <use xlink:href="#mbf046b03ff" x="678.09413" y="201.87744" style="fill: #0000ff; stroke: #0000ff"/>
     <use xlink:href="#mbf046b03ff" x="678.09413" y="165.66624" style="fill: #0000ff; stroke: #0000ff"/>
     <use xlink:href="#mbf046b03ff" x="678.09413" y="310.51104" style="fill: #0000ff; stroke: #0000ff"/>
     <use xlink:href="#mbf046b03ff" x="678.09413" y="174.71904" style="fill: #0000ff; stroke: #0000ff"/>
     <use xlink:href="#mbf046b03ff" x="678.09413" y="238.08864" style="fill: #0000ff; stroke: #0000ff"/>
     <use xlink:href="#mbf046b03ff" x="733.749195" y="301.45824" style="fill: #0000ff; stroke: #0000ff"/>
     <use xlink:href="#mbf046b03ff" x="733.749195" y="192.82464" style="fill: #0000ff; stroke: #0000ff"/>
     <use xlink:href="#mbf046b03ff" x="733.749195" y="310.51104" style="fill: #0000ff; stroke: #0000ff"/>
     <use xlink:href="#mbf046b03ff" x="733.749195" y="319.56384" style="fill: #0000ff; stroke: #0000ff"/>
     <use xlink:href="#mbf046b03ff" x="733.749195" y="192.82464" style="fill: #0000ff; stroke: #0000ff"/>
     <use xlink:href="#mbf046b03ff" x="733.749195" y="319.56384" style="fill: #0000ff; stroke: #0000ff"/>
     <use xlink:href="#mbf046b03ff" x="733.749195" y="192.82464" style="fill: #0000ff; stroke: #0000ff"/>
     <use xlink:href="#mbf046b03ff" x="733.749195" y="210.93024" style="fill: #0000ff; stroke: #0000ff"/>
     <use xlink:href="#mbf046b03ff" x="733.749195" y="328.61664" style="fill: #0000ff; stroke: #0000ff"/>
     <use xlink:href="#mbf046b03ff" x="733.749195" y="247.14144" style="fill: #0000ff; stroke: #0000ff"/>
     <use xlink:href="#mbf046b03ff" x="789.40426" y="274.29984" style="fill: #0000ff; stroke: #0000ff"/>
     <use xlink:href="#mbf046b03ff" x="789.40426" y="373.88064" style="fill: #0000ff; stroke: #0000ff"/>
     <use xlink:href="#mbf046b03ff" x="789.40426" y="156.61344" style="fill: #0000ff; stroke: #0000ff"/>
     <use xlink:href="#mbf046b03ff" x="789.40426" y="256.19424" style="fill: #0000ff; stroke: #0000ff"/>
     <use xlink:href="#mbf046b03ff" x="789.40426" y="238.08864" style="fill: #0000ff; stroke: #0000ff"/>
     <use xlink:href="#mbf046b03ff" x="789.40426" y="201.87744" style="fill: #0000ff; stroke: #0000ff"/>
     <use xlink:href="#mbf046b03ff" x="789.40426" y="238.08864" style="fill: #0000ff; stroke: #0000ff"/>
     <use xlink:href="#mbf046b03ff" x="789.40426" y="247.14144" style="fill: #0000ff; stroke: #0000ff"/>
     <use xlink:href="#mbf046b03ff" x="789.40426" y="265.24704" style="fill: #0000ff; stroke: #0000ff"/>
     <use xlink:href="#mbf046b03ff" x="789.40426" y="174.71904" style="fill: #0000ff; stroke: #0000ff"/>
     <use xlink:href="#mbf046b03ff" x="845.059325" y="247.14144" style="fill: #0000ff; stroke: #0000ff"/>
     <use xlink:href="#mbf046b03ff" x="845.059325" y="210.93024" style="fill: #0000ff; stroke: #0000ff"/>
     <use xlink:href="#mbf046b03ff" x="845.059325" y="192.82464" style="fill: #0000ff; stroke: #0000ff"/>
     <use xlink:href="#mbf046b03ff" x="845.059325" y="165.66624" style="fill: #0000ff; stroke: #0000ff"/>
     <use xlink:href="#mbf046b03ff" x="845.059325" y="256.19424" style="fill: #0000ff; stroke: #0000ff"/>
     <use xlink:href="#mbf046b03ff" x="845.059325" y="355.77504" style="fill: #0000ff; stroke: #0000ff"/>
     <use xlink:href="#mbf046b03ff" x="845.059325" y="156.61344" style="fill: #0000ff; stroke: #0000ff"/>
     <use xlink:href="#mbf046b03ff" x="845.059325" y="247.14144" style="fill: #0000ff; stroke: #0000ff"/>
     <use xlink:href="#mbf046b03ff" x="845.059325" y="274.29984" style="fill: #0000ff; stroke: #0000ff"/>
     <use xlink:href="#mbf046b03ff" x="845.059325" y="183.77184" style="fill: #0000ff; stroke: #0000ff"/>
     <use xlink:href="#mbf046b03ff" x="900.71439" y="201.87744" style="fill: #0000ff; stroke: #0000ff"/>
     <use xlink:href="#mbf046b03ff" x="900.71439" y="219.98304" style="fill: #0000ff; stroke: #0000ff"/>
     <use xlink:href="#mbf046b03ff" x="900.71439" y="292.40544" style="fill: #0000ff; stroke: #0000ff"/>
     <use xlink:href="#mbf046b03ff" x="900.71439" y="283.35264" style="fill: #0000ff; stroke: #0000ff"/>
     <use xlink:href="#mbf046b03ff" x="900.71439" y="238.08864" style="fill: #0000ff; stroke: #0000ff"/>
     <use xlink:href="#mbf046b03ff" x="900.71439" y="174.71904" style="fill: #0000ff; stroke: #0000ff"/>
     <use xlink:href="#mbf046b03ff" x="900.71439" y="156.61344" style="fill: #0000ff; stroke: #0000ff"/>
     <use xlink:href="#mbf046b03ff" x="900.71439" y="93.24384" style="fill: #0000ff; stroke: #0000ff"/>
     <use xlink:href="#mbf046b03ff" x="900.71439" y="274.29984" style="fill: #0000ff; stroke: #0000ff"/>
     <use xlink:href="#mbf046b03ff" x="900.71439" y="120.40224" style="fill: #0000ff; stroke: #0000ff"/>
     <use xlink:href="#mbf046b03ff" x="956.369455" y="265.24704" style="fill: #0000ff; stroke: #0000ff"/>
     <use xlink:href="#mbf046b03ff" x="956.369455" y="219.98304" style="fill: #0000ff; stroke: #0000ff"/>
     <use xlink:href="#mbf046b03ff" x="956.369455" y="310.51104" style="fill: #0000ff; stroke: #0000ff"/>
     <use xlink:href="#mbf046b03ff" x="956.369455" y="183.77184" style="fill: #0000ff; stroke: #0000ff"/>
     <use xlink:href="#mbf046b03ff" x="956.369455" y="256.19424" style="fill: #0000ff; stroke: #0000ff"/>
     <use xlink:href="#mbf046b03ff" x="956.369455" y="274.29984" style="fill: #0000ff; stroke: #0000ff"/>
     <use xlink:href="#mbf046b03ff" x="956.369455" y="247.14144" style="fill: #0000ff; stroke: #0000ff"/>
     <use xlink:href="#mbf046b03ff" x="956.369455" y="247.14144" style="fill: #0000ff; stroke: #0000ff"/>
     <use xlink:href="#mbf046b03ff" x="956.369455" y="265.24704" style="fill: #0000ff; stroke: #0000ff"/>
     <use xlink:href="#mbf046b03ff" x="956.369455" y="328.61664" style="fill: #0000ff; stroke: #0000ff"/>
    </g>
   </g>
   <g id="matplotlib.axis_1">
    <g id="xtick_1">
     <g id="line2d_1">
      <defs>
       <path id="m34ed9dfed5" d="M 0 0 
L 0 3.5 
" style="stroke: #000000; stroke-width: 0.8"/>
      </defs>
      <g>
       <use xlink:href="#m34ed9dfed5" x="232.85361" y="483.41952" style="stroke: #000000; stroke-width: 0.8"/>
      </g>
     </g>
     <g id="text_1">
      <!-- 6 -->
      <g transform="translate(229.67236 498.017958) scale(0.1 -0.1)">
       <defs>
        <path id="DejaVuSans-36" d="M 2113 2584 
Q 1688 2584 1439 2293 
Q 1191 2003 1191 1497 
Q 1191 994 1439 701 
Q 1688 409 2113 409 
Q 2538 409 2786 701 
Q 3034 994 3034 1497 
Q 3034 2003 2786 2293 
Q 2538 2584 2113 2584 
z
M 3366 4563 
L 3366 3988 
Q 3128 4100 2886 4159 
Q 2644 4219 2406 4219 
Q 1781 4219 1451 3797 
Q 1122 3375 1075 2522 
Q 1259 2794 1537 2939 
Q 1816 3084 2150 3084 
Q 2853 3084 3261 2657 
Q 3669 2231 3669 1497 
Q 3669 778 3244 343 
Q 2819 -91 2113 -91 
Q 1303 -91 875 529 
Q 447 1150 447 2328 
Q 447 3434 972 4092 
Q 1497 4750 2381 4750 
Q 2619 4750 2861 4703 
Q 3103 4656 3366 4563 
z
" transform="scale(0.015625)"/>
       </defs>
       <use xlink:href="#DejaVuSans-36"/>
      </g>
     </g>
    </g>
    <g id="xtick_2">
     <g id="line2d_2">
      <g>
       <use xlink:href="#m34ed9dfed5" x="344.16374" y="483.41952" style="stroke: #000000; stroke-width: 0.8"/>
      </g>
     </g>
     <g id="text_2">
      <!-- 8 -->
      <g transform="translate(340.98249 498.017958) scale(0.1 -0.1)">
       <defs>
        <path id="DejaVuSans-38" d="M 2034 2216 
Q 1584 2216 1326 1975 
Q 1069 1734 1069 1313 
Q 1069 891 1326 650 
Q 1584 409 2034 409 
Q 2484 409 2743 651 
Q 3003 894 3003 1313 
Q 3003 1734 2745 1975 
Q 2488 2216 2034 2216 
z
M 1403 2484 
Q 997 2584 770 2862 
Q 544 3141 544 3541 
Q 544 4100 942 4425 
Q 1341 4750 2034 4750 
Q 2731 4750 3128 4425 
Q 3525 4100 3525 3541 
Q 3525 3141 3298 2862 
Q 3072 2584 2669 2484 
Q 3125 2378 3379 2068 
Q 3634 1759 3634 1313 
Q 3634 634 3220 271 
Q 2806 -91 2034 -91 
Q 1263 -91 848 271 
Q 434 634 434 1313 
Q 434 1759 690 2068 
Q 947 2378 1403 2484 
z
M 1172 3481 
Q 1172 3119 1398 2916 
Q 1625 2713 2034 2713 
Q 2441 2713 2670 2916 
Q 2900 3119 2900 3481 
Q 2900 3844 2670 4047 
Q 2441 4250 2034 4250 
Q 1625 4250 1398 4047 
Q 1172 3844 1172 3481 
z
" transform="scale(0.015625)"/>
       </defs>
       <use xlink:href="#DejaVuSans-38"/>
      </g>
     </g>
    </g>
    <g id="xtick_3">
     <g id="line2d_3">
      <g>
       <use xlink:href="#m34ed9dfed5" x="455.47387" y="483.41952" style="stroke: #000000; stroke-width: 0.8"/>
      </g>
     </g>
     <g id="text_3">
      <!-- 10 -->
      <g transform="translate(449.11137 498.017958) scale(0.1 -0.1)">
       <defs>
        <path id="DejaVuSans-31" d="M 794 531 
L 1825 531 
L 1825 4091 
L 703 3866 
L 703 4441 
L 1819 4666 
L 2450 4666 
L 2450 531 
L 3481 531 
L 3481 0 
L 794 0 
L 794 531 
z
" transform="scale(0.015625)"/>
        <path id="DejaVuSans-30" d="M 2034 4250 
Q 1547 4250 1301 3770 
Q 1056 3291 1056 2328 
Q 1056 1369 1301 889 
Q 1547 409 2034 409 
Q 2525 409 2770 889 
Q 3016 1369 3016 2328 
Q 3016 3291 2770 3770 
Q 2525 4250 2034 4250 
z
M 2034 4750 
Q 2819 4750 3233 4129 
Q 3647 3509 3647 2328 
Q 3647 1150 3233 529 
Q 2819 -91 2034 -91 
Q 1250 -91 836 529 
Q 422 1150 422 2328 
Q 422 3509 836 4129 
Q 1250 4750 2034 4750 
z
" transform="scale(0.015625)"/>
       </defs>
       <use xlink:href="#DejaVuSans-31"/>
       <use xlink:href="#DejaVuSans-30" transform="translate(63.623047 0)"/>
      </g>
     </g>
    </g>
    <g id="xtick_4">
     <g id="line2d_4">
      <g>
       <use xlink:href="#m34ed9dfed5" x="566.784" y="483.41952" style="stroke: #000000; stroke-width: 0.8"/>
      </g>
     </g>
     <g id="text_4">
      <!-- 12 -->
      <g transform="translate(560.4215 498.017958) scale(0.1 -0.1)">
       <defs>
        <path id="DejaVuSans-32" d="M 1228 531 
L 3431 531 
L 3431 0 
L 469 0 
L 469 531 
Q 828 903 1448 1529 
Q 2069 2156 2228 2338 
Q 2531 2678 2651 2914 
Q 2772 3150 2772 3378 
Q 2772 3750 2511 3984 
Q 2250 4219 1831 4219 
Q 1534 4219 1204 4116 
Q 875 4013 500 3803 
L 500 4441 
Q 881 4594 1212 4672 
Q 1544 4750 1819 4750 
Q 2544 4750 2975 4387 
Q 3406 4025 3406 3419 
Q 3406 3131 3298 2873 
Q 3191 2616 2906 2266 
Q 2828 2175 2409 1742 
Q 1991 1309 1228 531 
z
" transform="scale(0.015625)"/>
       </defs>
       <use xlink:href="#DejaVuSans-31"/>
       <use xlink:href="#DejaVuSans-32" transform="translate(63.623047 0)"/>
      </g>
     </g>
    </g>
    <g id="xtick_5">
     <g id="line2d_5">
      <g>
       <use xlink:href="#m34ed9dfed5" x="678.09413" y="483.41952" style="stroke: #000000; stroke-width: 0.8"/>
      </g>
     </g>
     <g id="text_5">
      <!-- 14 -->
      <g transform="translate(671.73163 498.017958) scale(0.1 -0.1)">
       <defs>
        <path id="DejaVuSans-34" d="M 2419 4116 
L 825 1625 
L 2419 1625 
L 2419 4116 
z
M 2253 4666 
L 3047 4666 
L 3047 1625 
L 3713 1625 
L 3713 1100 
L 3047 1100 
L 3047 0 
L 2419 0 
L 2419 1100 
L 313 1100 
L 313 1709 
L 2253 4666 
z
" transform="scale(0.015625)"/>
       </defs>
       <use xlink:href="#DejaVuSans-31"/>
       <use xlink:href="#DejaVuSans-34" transform="translate(63.623047 0)"/>
      </g>
     </g>
    </g>
    <g id="xtick_6">
     <g id="line2d_6">
      <g>
       <use xlink:href="#m34ed9dfed5" x="789.40426" y="483.41952" style="stroke: #000000; stroke-width: 0.8"/>
      </g>
     </g>
     <g id="text_6">
      <!-- 16 -->
      <g transform="translate(783.04176 498.017958) scale(0.1 -0.1)">
       <use xlink:href="#DejaVuSans-31"/>
       <use xlink:href="#DejaVuSans-36" transform="translate(63.623047 0)"/>
      </g>
     </g>
    </g>
    <g id="xtick_7">
     <g id="line2d_7">
      <g>
       <use xlink:href="#m34ed9dfed5" x="900.71439" y="483.41952" style="stroke: #000000; stroke-width: 0.8"/>
      </g>
     </g>
     <g id="text_7">
      <!-- 18 -->
      <g transform="translate(894.35189 498.017958) scale(0.1 -0.1)">
       <use xlink:href="#DejaVuSans-31"/>
       <use xlink:href="#DejaVuSans-38" transform="translate(63.623047 0)"/>
      </g>
     </g>
    </g>
    <g id="text_8">
     <!-- Máx profundidad del Árbol (Random Forest) -->
     <g transform="translate(457.574625 513.349208) scale(0.1 -0.1)">
      <defs>
       <path id="DejaVuSans-4d" d="M 628 4666 
L 1569 4666 
L 2759 1491 
L 3956 4666 
L 4897 4666 
L 4897 0 
L 4281 0 
L 4281 4097 
L 3078 897 
L 2444 897 
L 1241 4097 
L 1241 0 
L 628 0 
L 628 4666 
z
" transform="scale(0.015625)"/>
       <path id="DejaVuSans-e1" d="M 2194 1759 
Q 1497 1759 1228 1600 
Q 959 1441 959 1056 
Q 959 750 1161 570 
Q 1363 391 1709 391 
Q 2188 391 2477 730 
Q 2766 1069 2766 1631 
L 2766 1759 
L 2194 1759 
z
M 3341 1997 
L 3341 0 
L 2766 0 
L 2766 531 
Q 2569 213 2275 61 
Q 1981 -91 1556 -91 
Q 1019 -91 701 211 
Q 384 513 384 1019 
Q 384 1609 779 1909 
Q 1175 2209 1959 2209 
L 2766 2209 
L 2766 2266 
Q 2766 2663 2505 2880 
Q 2244 3097 1772 3097 
Q 1472 3097 1187 3025 
Q 903 2953 641 2809 
L 641 3341 
Q 956 3463 1253 3523 
Q 1550 3584 1831 3584 
Q 2591 3584 2966 3190 
Q 3341 2797 3341 1997 
z
M 2290 5119 
L 2912 5119 
L 1894 3944 
L 1415 3944 
L 2290 5119 
z
" transform="scale(0.015625)"/>
       <path id="DejaVuSans-78" d="M 3513 3500 
L 2247 1797 
L 3578 0 
L 2900 0 
L 1881 1375 
L 863 0 
L 184 0 
L 1544 1831 
L 300 3500 
L 978 3500 
L 1906 2253 
L 2834 3500 
L 3513 3500 
z
" transform="scale(0.015625)"/>
       <path id="DejaVuSans-20" transform="scale(0.015625)"/>
       <path id="DejaVuSans-70" d="M 1159 525 
L 1159 -1331 
L 581 -1331 
L 581 3500 
L 1159 3500 
L 1159 2969 
Q 1341 3281 1617 3432 
Q 1894 3584 2278 3584 
Q 2916 3584 3314 3078 
Q 3713 2572 3713 1747 
Q 3713 922 3314 415 
Q 2916 -91 2278 -91 
Q 1894 -91 1617 61 
Q 1341 213 1159 525 
z
M 3116 1747 
Q 3116 2381 2855 2742 
Q 2594 3103 2138 3103 
Q 1681 3103 1420 2742 
Q 1159 2381 1159 1747 
Q 1159 1113 1420 752 
Q 1681 391 2138 391 
Q 2594 391 2855 752 
Q 3116 1113 3116 1747 
z
" transform="scale(0.015625)"/>
       <path id="DejaVuSans-72" d="M 2631 2963 
Q 2534 3019 2420 3045 
Q 2306 3072 2169 3072 
Q 1681 3072 1420 2755 
Q 1159 2438 1159 1844 
L 1159 0 
L 581 0 
L 581 3500 
L 1159 3500 
L 1159 2956 
Q 1341 3275 1631 3429 
Q 1922 3584 2338 3584 
Q 2397 3584 2469 3576 
Q 2541 3569 2628 3553 
L 2631 2963 
z
" transform="scale(0.015625)"/>
       <path id="DejaVuSans-6f" d="M 1959 3097 
Q 1497 3097 1228 2736 
Q 959 2375 959 1747 
Q 959 1119 1226 758 
Q 1494 397 1959 397 
Q 2419 397 2687 759 
Q 2956 1122 2956 1747 
Q 2956 2369 2687 2733 
Q 2419 3097 1959 3097 
z
M 1959 3584 
Q 2709 3584 3137 3096 
Q 3566 2609 3566 1747 
Q 3566 888 3137 398 
Q 2709 -91 1959 -91 
Q 1206 -91 779 398 
Q 353 888 353 1747 
Q 353 2609 779 3096 
Q 1206 3584 1959 3584 
z
" transform="scale(0.015625)"/>
       <path id="DejaVuSans-66" d="M 2375 4863 
L 2375 4384 
L 1825 4384 
Q 1516 4384 1395 4259 
Q 1275 4134 1275 3809 
L 1275 3500 
L 2222 3500 
L 2222 3053 
L 1275 3053 
L 1275 0 
L 697 0 
L 697 3053 
L 147 3053 
L 147 3500 
L 697 3500 
L 697 3744 
Q 697 4328 969 4595 
Q 1241 4863 1831 4863 
L 2375 4863 
z
" transform="scale(0.015625)"/>
       <path id="DejaVuSans-75" d="M 544 1381 
L 544 3500 
L 1119 3500 
L 1119 1403 
Q 1119 906 1312 657 
Q 1506 409 1894 409 
Q 2359 409 2629 706 
Q 2900 1003 2900 1516 
L 2900 3500 
L 3475 3500 
L 3475 0 
L 2900 0 
L 2900 538 
Q 2691 219 2414 64 
Q 2138 -91 1772 -91 
Q 1169 -91 856 284 
Q 544 659 544 1381 
z
M 1991 3584 
L 1991 3584 
z
" transform="scale(0.015625)"/>
       <path id="DejaVuSans-6e" d="M 3513 2113 
L 3513 0 
L 2938 0 
L 2938 2094 
Q 2938 2591 2744 2837 
Q 2550 3084 2163 3084 
Q 1697 3084 1428 2787 
Q 1159 2491 1159 1978 
L 1159 0 
L 581 0 
L 581 3500 
L 1159 3500 
L 1159 2956 
Q 1366 3272 1645 3428 
Q 1925 3584 2291 3584 
Q 2894 3584 3203 3211 
Q 3513 2838 3513 2113 
z
" transform="scale(0.015625)"/>
       <path id="DejaVuSans-64" d="M 2906 2969 
L 2906 4863 
L 3481 4863 
L 3481 0 
L 2906 0 
L 2906 525 
Q 2725 213 2448 61 
Q 2172 -91 1784 -91 
Q 1150 -91 751 415 
Q 353 922 353 1747 
Q 353 2572 751 3078 
Q 1150 3584 1784 3584 
Q 2172 3584 2448 3432 
Q 2725 3281 2906 2969 
z
M 947 1747 
Q 947 1113 1208 752 
Q 1469 391 1925 391 
Q 2381 391 2643 752 
Q 2906 1113 2906 1747 
Q 2906 2381 2643 2742 
Q 2381 3103 1925 3103 
Q 1469 3103 1208 2742 
Q 947 2381 947 1747 
z
" transform="scale(0.015625)"/>
       <path id="DejaVuSans-69" d="M 603 3500 
L 1178 3500 
L 1178 0 
L 603 0 
L 603 3500 
z
M 603 4863 
L 1178 4863 
L 1178 4134 
L 603 4134 
L 603 4863 
z
" transform="scale(0.015625)"/>
       <path id="DejaVuSans-61" d="M 2194 1759 
Q 1497 1759 1228 1600 
Q 959 1441 959 1056 
Q 959 750 1161 570 
Q 1363 391 1709 391 
Q 2188 391 2477 730 
Q 2766 1069 2766 1631 
L 2766 1759 
L 2194 1759 
z
M 3341 1997 
L 3341 0 
L 2766 0 
L 2766 531 
Q 2569 213 2275 61 
Q 1981 -91 1556 -91 
Q 1019 -91 701 211 
Q 384 513 384 1019 
Q 384 1609 779 1909 
Q 1175 2209 1959 2209 
L 2766 2209 
L 2766 2266 
Q 2766 2663 2505 2880 
Q 2244 3097 1772 3097 
Q 1472 3097 1187 3025 
Q 903 2953 641 2809 
L 641 3341 
Q 956 3463 1253 3523 
Q 1550 3584 1831 3584 
Q 2591 3584 2966 3190 
Q 3341 2797 3341 1997 
z
" transform="scale(0.015625)"/>
       <path id="DejaVuSans-65" d="M 3597 1894 
L 3597 1613 
L 953 1613 
Q 991 1019 1311 708 
Q 1631 397 2203 397 
Q 2534 397 2845 478 
Q 3156 559 3463 722 
L 3463 178 
Q 3153 47 2828 -22 
Q 2503 -91 2169 -91 
Q 1331 -91 842 396 
Q 353 884 353 1716 
Q 353 2575 817 3079 
Q 1281 3584 2069 3584 
Q 2775 3584 3186 3129 
Q 3597 2675 3597 1894 
z
M 3022 2063 
Q 3016 2534 2758 2815 
Q 2500 3097 2075 3097 
Q 1594 3097 1305 2825 
Q 1016 2553 972 2059 
L 3022 2063 
z
" transform="scale(0.015625)"/>
       <path id="DejaVuSans-6c" d="M 603 4863 
L 1178 4863 
L 1178 0 
L 603 0 
L 603 4863 
z
" transform="scale(0.015625)"/>
       <path id="DejaVuSans-c1" d="M 2188 4044 
L 1331 1722 
L 3047 1722 
L 2188 4044 
z
M 1831 4666 
L 2547 4666 
L 4325 0 
L 3669 0 
L 3244 1197 
L 1141 1197 
L 716 0 
L 50 0 
L 1831 4666 
z
M 2356 5921 
L 2934 5921 
L 2222 5096 
L 1743 5096 
L 2356 5921 
z
" transform="scale(0.015625)"/>
       <path id="DejaVuSans-62" d="M 3116 1747 
Q 3116 2381 2855 2742 
Q 2594 3103 2138 3103 
Q 1681 3103 1420 2742 
Q 1159 2381 1159 1747 
Q 1159 1113 1420 752 
Q 1681 391 2138 391 
Q 2594 391 2855 752 
Q 3116 1113 3116 1747 
z
M 1159 2969 
Q 1341 3281 1617 3432 
Q 1894 3584 2278 3584 
Q 2916 3584 3314 3078 
Q 3713 2572 3713 1747 
Q 3713 922 3314 415 
Q 2916 -91 2278 -91 
Q 1894 -91 1617 61 
Q 1341 213 1159 525 
L 1159 0 
L 581 0 
L 581 4863 
L 1159 4863 
L 1159 2969 
z
" transform="scale(0.015625)"/>
       <path id="DejaVuSans-28" d="M 1984 4856 
Q 1566 4138 1362 3434 
Q 1159 2731 1159 2009 
Q 1159 1288 1364 580 
Q 1569 -128 1984 -844 
L 1484 -844 
Q 1016 -109 783 600 
Q 550 1309 550 2009 
Q 550 2706 781 3412 
Q 1013 4119 1484 4856 
L 1984 4856 
z
" transform="scale(0.015625)"/>
       <path id="DejaVuSans-52" d="M 2841 2188 
Q 3044 2119 3236 1894 
Q 3428 1669 3622 1275 
L 4263 0 
L 3584 0 
L 2988 1197 
Q 2756 1666 2539 1819 
Q 2322 1972 1947 1972 
L 1259 1972 
L 1259 0 
L 628 0 
L 628 4666 
L 2053 4666 
Q 2853 4666 3247 4331 
Q 3641 3997 3641 3322 
Q 3641 2881 3436 2590 
Q 3231 2300 2841 2188 
z
M 1259 4147 
L 1259 2491 
L 2053 2491 
Q 2509 2491 2742 2702 
Q 2975 2913 2975 3322 
Q 2975 3731 2742 3939 
Q 2509 4147 2053 4147 
L 1259 4147 
z
" transform="scale(0.015625)"/>
       <path id="DejaVuSans-6d" d="M 3328 2828 
Q 3544 3216 3844 3400 
Q 4144 3584 4550 3584 
Q 5097 3584 5394 3201 
Q 5691 2819 5691 2113 
L 5691 0 
L 5113 0 
L 5113 2094 
Q 5113 2597 4934 2840 
Q 4756 3084 4391 3084 
Q 3944 3084 3684 2787 
Q 3425 2491 3425 1978 
L 3425 0 
L 2847 0 
L 2847 2094 
Q 2847 2600 2669 2842 
Q 2491 3084 2119 3084 
Q 1678 3084 1418 2786 
Q 1159 2488 1159 1978 
L 1159 0 
L 581 0 
L 581 3500 
L 1159 3500 
L 1159 2956 
Q 1356 3278 1631 3431 
Q 1906 3584 2284 3584 
Q 2666 3584 2933 3390 
Q 3200 3197 3328 2828 
z
" transform="scale(0.015625)"/>
       <path id="DejaVuSans-46" d="M 628 4666 
L 3309 4666 
L 3309 4134 
L 1259 4134 
L 1259 2759 
L 3109 2759 
L 3109 2228 
L 1259 2228 
L 1259 0 
L 628 0 
L 628 4666 
z
" transform="scale(0.015625)"/>
       <path id="DejaVuSans-73" d="M 2834 3397 
L 2834 2853 
Q 2591 2978 2328 3040 
Q 2066 3103 1784 3103 
Q 1356 3103 1142 2972 
Q 928 2841 928 2578 
Q 928 2378 1081 2264 
Q 1234 2150 1697 2047 
L 1894 2003 
Q 2506 1872 2764 1633 
Q 3022 1394 3022 966 
Q 3022 478 2636 193 
Q 2250 -91 1575 -91 
Q 1294 -91 989 -36 
Q 684 19 347 128 
L 347 722 
Q 666 556 975 473 
Q 1284 391 1588 391 
Q 1994 391 2212 530 
Q 2431 669 2431 922 
Q 2431 1156 2273 1281 
Q 2116 1406 1581 1522 
L 1381 1569 
Q 847 1681 609 1914 
Q 372 2147 372 2553 
Q 372 3047 722 3315 
Q 1072 3584 1716 3584 
Q 2034 3584 2315 3537 
Q 2597 3491 2834 3397 
z
" transform="scale(0.015625)"/>
       <path id="DejaVuSans-74" d="M 1172 4494 
L 1172 3500 
L 2356 3500 
L 2356 3053 
L 1172 3053 
L 1172 1153 
Q 1172 725 1289 603 
Q 1406 481 1766 481 
L 2356 481 
L 2356 0 
L 1766 0 
Q 1100 0 847 248 
Q 594 497 594 1153 
L 594 3053 
L 172 3053 
L 172 3500 
L 594 3500 
L 594 4494 
L 1172 4494 
z
" transform="scale(0.015625)"/>
       <path id="DejaVuSans-29" d="M 513 4856 
L 1013 4856 
Q 1481 4119 1714 3412 
Q 1947 2706 1947 2009 
Q 1947 1309 1714 600 
Q 1481 -109 1013 -844 
L 513 -844 
Q 928 -128 1133 580 
Q 1338 1288 1338 2009 
Q 1338 2731 1133 3434 
Q 928 4138 513 4856 
z
" transform="scale(0.015625)"/>
      </defs>
      <use xlink:href="#DejaVuSans-4d"/>
      <use xlink:href="#DejaVuSans-e1" transform="translate(86.279297 0)"/>
      <use xlink:href="#DejaVuSans-78" transform="translate(147.558594 0)"/>
      <use xlink:href="#DejaVuSans-20" transform="translate(206.738281 0)"/>
      <use xlink:href="#DejaVuSans-70" transform="translate(238.525391 0)"/>
      <use xlink:href="#DejaVuSans-72" transform="translate(302.001953 0)"/>
      <use xlink:href="#DejaVuSans-6f" transform="translate(340.865234 0)"/>
      <use xlink:href="#DejaVuSans-66" transform="translate(402.046875 0)"/>
      <use xlink:href="#DejaVuSans-75" transform="translate(437.251953 0)"/>
      <use xlink:href="#DejaVuSans-6e" transform="translate(500.630859 0)"/>
      <use xlink:href="#DejaVuSans-64" transform="translate(564.009766 0)"/>
      <use xlink:href="#DejaVuSans-69" transform="translate(627.486328 0)"/>
      <use xlink:href="#DejaVuSans-64" transform="translate(655.269531 0)"/>
      <use xlink:href="#DejaVuSans-61" transform="translate(718.746094 0)"/>
      <use xlink:href="#DejaVuSans-64" transform="translate(780.025391 0)"/>
      <use xlink:href="#DejaVuSans-20" transform="translate(843.501953 0)"/>
      <use xlink:href="#DejaVuSans-64" transform="translate(875.289062 0)"/>
      <use xlink:href="#DejaVuSans-65" transform="translate(938.765625 0)"/>
      <use xlink:href="#DejaVuSans-6c" transform="translate(1000.289062 0)"/>
      <use xlink:href="#DejaVuSans-20" transform="translate(1028.072266 0)"/>
      <use xlink:href="#DejaVuSans-c1" transform="translate(1059.859375 0)"/>
      <use xlink:href="#DejaVuSans-72" transform="translate(1128.267578 0)"/>
      <use xlink:href="#DejaVuSans-62" transform="translate(1169.380859 0)"/>
      <use xlink:href="#DejaVuSans-6f" transform="translate(1232.857422 0)"/>
      <use xlink:href="#DejaVuSans-6c" transform="translate(1294.039062 0)"/>
      <use xlink:href="#DejaVuSans-20" transform="translate(1321.822266 0)"/>
      <use xlink:href="#DejaVuSans-28" transform="translate(1353.609375 0)"/>
      <use xlink:href="#DejaVuSans-52" transform="translate(1392.623047 0)"/>
      <use xlink:href="#DejaVuSans-61" transform="translate(1459.855469 0)"/>
      <use xlink:href="#DejaVuSans-6e" transform="translate(1521.134766 0)"/>
      <use xlink:href="#DejaVuSans-64" transform="translate(1584.513672 0)"/>
      <use xlink:href="#DejaVuSans-6f" transform="translate(1647.990234 0)"/>
      <use xlink:href="#DejaVuSans-6d" transform="translate(1709.171875 0)"/>
      <use xlink:href="#DejaVuSans-20" transform="translate(1806.583984 0)"/>
      <use xlink:href="#DejaVuSans-46" transform="translate(1838.371094 0)"/>
      <use xlink:href="#DejaVuSans-6f" transform="translate(1892.265625 0)"/>
      <use xlink:href="#DejaVuSans-72" transform="translate(1953.447266 0)"/>
      <use xlink:href="#DejaVuSans-65" transform="translate(1992.310547 0)"/>
      <use xlink:href="#DejaVuSans-73" transform="translate(2053.833984 0)"/>
      <use xlink:href="#DejaVuSans-74" transform="translate(2105.933594 0)"/>
      <use xlink:href="#DejaVuSans-29" transform="translate(2145.142578 0)"/>
     </g>
    </g>
   </g>
   <g id="matplotlib.axis_2">
    <g id="ytick_1">
     <g id="line2d_8">
      <defs>
       <path id="m730b0b1726" d="M 0 0 
L -3.5 0 
" style="stroke: #000000; stroke-width: 0.8"/>
      </defs>
      <g>
       <use xlink:href="#m730b0b1726" x="138.24" y="478.349952" style="stroke: #000000; stroke-width: 0.8"/>
      </g>
     </g>
     <g id="text_9">
      <!-- 0.78 -->
      <g transform="translate(108.974375 482.149171) scale(0.1 -0.1)">
       <defs>
        <path id="DejaVuSans-2e" d="M 684 794 
L 1344 794 
L 1344 0 
L 684 0 
L 684 794 
z
" transform="scale(0.015625)"/>
        <path id="DejaVuSans-37" d="M 525 4666 
L 3525 4666 
L 3525 4397 
L 1831 0 
L 1172 0 
L 2766 4134 
L 525 4134 
L 525 4666 
z
" transform="scale(0.015625)"/>
       </defs>
       <use xlink:href="#DejaVuSans-30"/>
       <use xlink:href="#DejaVuSans-2e" transform="translate(63.623047 0)"/>
       <use xlink:href="#DejaVuSans-37" transform="translate(95.410156 0)"/>
       <use xlink:href="#DejaVuSans-38" transform="translate(159.033203 0)"/>
      </g>
     </g>
    </g>
    <g id="ytick_2">
     <g id="line2d_9">
      <g>
       <use xlink:href="#m730b0b1726" x="138.24" y="404.66016" style="stroke: #000000; stroke-width: 0.8"/>
      </g>
     </g>
     <g id="text_10">
      <!-- 0.80 -->
      <g transform="translate(108.974375 408.459379) scale(0.1 -0.1)">
       <use xlink:href="#DejaVuSans-30"/>
       <use xlink:href="#DejaVuSans-2e" transform="translate(63.623047 0)"/>
       <use xlink:href="#DejaVuSans-38" transform="translate(95.410156 0)"/>
       <use xlink:href="#DejaVuSans-30" transform="translate(159.033203 0)"/>
      </g>
     </g>
    </g>
    <g id="ytick_3">
     <g id="line2d_10">
      <g>
       <use xlink:href="#m730b0b1726" x="138.24" y="330.970368" style="stroke: #000000; stroke-width: 0.8"/>
      </g>
     </g>
     <g id="text_11">
      <!-- 0.82 -->
      <g transform="translate(108.974375 334.769587) scale(0.1 -0.1)">
       <use xlink:href="#DejaVuSans-30"/>
       <use xlink:href="#DejaVuSans-2e" transform="translate(63.623047 0)"/>
       <use xlink:href="#DejaVuSans-38" transform="translate(95.410156 0)"/>
       <use xlink:href="#DejaVuSans-32" transform="translate(159.033203 0)"/>
      </g>
     </g>
    </g>
    <g id="ytick_4">
     <g id="line2d_11">
      <g>
       <use xlink:href="#m730b0b1726" x="138.24" y="257.280576" style="stroke: #000000; stroke-width: 0.8"/>
      </g>
     </g>
     <g id="text_12">
      <!-- 0.84 -->
      <g transform="translate(108.974375 261.079795) scale(0.1 -0.1)">
       <use xlink:href="#DejaVuSans-30"/>
       <use xlink:href="#DejaVuSans-2e" transform="translate(63.623047 0)"/>
       <use xlink:href="#DejaVuSans-38" transform="translate(95.410156 0)"/>
       <use xlink:href="#DejaVuSans-34" transform="translate(159.033203 0)"/>
      </g>
     </g>
    </g>
    <g id="ytick_5">
     <g id="line2d_12">
      <g>
       <use xlink:href="#m730b0b1726" x="138.24" y="183.590784" style="stroke: #000000; stroke-width: 0.8"/>
      </g>
     </g>
     <g id="text_13">
      <!-- 0.86 -->
      <g transform="translate(108.974375 187.390003) scale(0.1 -0.1)">
       <use xlink:href="#DejaVuSans-30"/>
       <use xlink:href="#DejaVuSans-2e" transform="translate(63.623047 0)"/>
       <use xlink:href="#DejaVuSans-38" transform="translate(95.410156 0)"/>
       <use xlink:href="#DejaVuSans-36" transform="translate(159.033203 0)"/>
      </g>
     </g>
    </g>
    <g id="ytick_6">
     <g id="line2d_13">
      <g>
       <use xlink:href="#m730b0b1726" x="138.24" y="109.900992" style="stroke: #000000; stroke-width: 0.8"/>
      </g>
     </g>
     <g id="text_14">
      <!-- 0.88 -->
      <g transform="translate(108.974375 113.700211) scale(0.1 -0.1)">
       <use xlink:href="#DejaVuSans-30"/>
       <use xlink:href="#DejaVuSans-2e" transform="translate(63.623047 0)"/>
       <use xlink:href="#DejaVuSans-38" transform="translate(95.410156 0)"/>
       <use xlink:href="#DejaVuSans-38" transform="translate(159.033203 0)"/>
      </g>
     </g>
    </g>
    <g id="text_15">
     <!-- Accuracy -->
     <g transform="translate(102.894688 297.127965) rotate(-90) scale(0.1 -0.1)">
      <defs>
       <path id="DejaVuSans-41" d="M 2188 4044 
L 1331 1722 
L 3047 1722 
L 2188 4044 
z
M 1831 4666 
L 2547 4666 
L 4325 0 
L 3669 0 
L 3244 1197 
L 1141 1197 
L 716 0 
L 50 0 
L 1831 4666 
z
" transform="scale(0.015625)"/>
       <path id="DejaVuSans-63" d="M 3122 3366 
L 3122 2828 
Q 2878 2963 2633 3030 
Q 2388 3097 2138 3097 
Q 1578 3097 1268 2742 
Q 959 2388 959 1747 
Q 959 1106 1268 751 
Q 1578 397 2138 397 
Q 2388 397 2633 464 
Q 2878 531 3122 666 
L 3122 134 
Q 2881 22 2623 -34 
Q 2366 -91 2075 -91 
Q 1284 -91 818 406 
Q 353 903 353 1747 
Q 353 2603 823 3093 
Q 1294 3584 2113 3584 
Q 2378 3584 2631 3529 
Q 2884 3475 3122 3366 
z
" transform="scale(0.015625)"/>
       <path id="DejaVuSans-79" d="M 2059 -325 
Q 1816 -950 1584 -1140 
Q 1353 -1331 966 -1331 
L 506 -1331 
L 506 -850 
L 844 -850 
Q 1081 -850 1212 -737 
Q 1344 -625 1503 -206 
L 1606 56 
L 191 3500 
L 800 3500 
L 1894 763 
L 2988 3500 
L 3597 3500 
L 2059 -325 
z
" transform="scale(0.015625)"/>
      </defs>
      <use xlink:href="#DejaVuSans-41"/>
      <use xlink:href="#DejaVuSans-63" transform="translate(66.658203 0)"/>
      <use xlink:href="#DejaVuSans-63" transform="translate(121.638672 0)"/>
      <use xlink:href="#DejaVuSans-75" transform="translate(176.619141 0)"/>
      <use xlink:href="#DejaVuSans-72" transform="translate(239.998047 0)"/>
      <use xlink:href="#DejaVuSans-61" transform="translate(281.111328 0)"/>
      <use xlink:href="#DejaVuSans-63" transform="translate(342.390625 0)"/>
      <use xlink:href="#DejaVuSans-79" transform="translate(397.371094 0)"/>
     </g>
    </g>
   </g>
   <g id="line2d_14">
    <path d="M 177.198545 375.702598 
L 185.005869 367.197413 
L 199.059052 351.450368 
L 211.55077 337.547224 
L 220.919558 327.459097 
L 228.726882 319.38635 
L 236.534206 311.680179 
L 242.780065 305.808335 
L 249.025924 300.214177 
L 255.271783 294.90818 
L 261.517642 289.89633 
L 267.763501 285.180624 
L 274.00936 280.759548 
L 280.255219 276.62852 
L 286.501078 272.780314 
L 292.746937 269.205451 
L 298.992796 265.892573 
L 305.238655 262.828784 
L 311.484514 259.999971 
L 317.730373 257.391104 
L 323.976232 254.986508 
L 331.783555 252.243526 
L 339.590879 249.762934 
L 347.398203 247.513302 
L 356.766991 245.075573 
L 366.13578 242.875994 
L 377.066033 240.548738 
L 389.557751 238.123656 
L 405.172399 235.324522 
L 428.59437 231.37345 
L 464.508059 225.543701 
L 486.368565 222.202564 
L 501.983213 220.04286 
L 514.474931 218.529534 
L 525.405184 217.411511 
L 536.335437 216.527556 
L 545.704226 215.985395 
L 555.073014 215.665988 
L 564.441803 215.589376 
L 573.810591 215.772404 
L 581.617915 216.13272 
L 589.425239 216.68747 
L 597.232563 217.439271 
L 605.039886 218.388058 
L 612.84721 219.530892 
L 622.215999 221.149794 
L 631.584787 223.022972 
L 640.953576 225.127253 
L 651.883829 227.833833 
L 664.375547 231.184794 
L 683.113124 236.49115 
L 701.850701 241.730296 
L 712.780954 244.550189 
L 722.149742 246.723843 
L 729.957066 248.308873 
L 737.76439 249.644057 
L 744.010249 250.505153 
L 750.256108 251.160627 
L 756.501967 251.591635 
L 762.747826 251.780676 
L 768.993685 251.711941 
L 775.239544 251.371672 
L 781.485403 250.748556 
L 787.731262 249.834149 
L 793.977121 248.623314 
L 800.22298 247.114693 
L 806.468839 245.311212 
L 812.714698 243.220604 
L 818.960557 240.855969 
L 825.206416 238.236358 
L 831.452275 235.387395 
L 839.259598 231.554439 
L 848.628387 226.666866 
L 868.927429 215.910146 
L 875.173288 212.869403 
L 879.857682 210.777428 
L 884.542076 208.90111 
L 889.22647 207.293951 
L 892.3494 206.400614 
L 895.472329 205.671185 
L 898.595259 205.125173 
L 901.718188 204.78314 
L 904.841118 204.666737 
L 907.964047 204.798733 
L 911.086977 205.203053 
L 914.209906 205.904815 
L 917.332836 206.930362 
L 920.455765 208.307301 
L 923.578695 210.064541 
L 926.701624 212.232329 
L 929.824554 214.84229 
L 932.947483 217.927464 
L 936.070413 221.52235 
L 939.193342 225.662943 
L 942.316272 230.386777 
L 945.439201 235.732965 
L 948.562131 241.742244 
L 951.68506 248.457018 
L 954.80799 255.921399 
L 956.369455 259.948957 
L 956.369455 259.948957 
" clip-path="url(#pe47c9eeaff)" style="fill: none; stroke: #ff0000; stroke-width: 4; stroke-linecap: square"/>
   </g>
   <g id="patch_3">
    <path d="M 138.24 483.41952 
L 138.24 65.18016 
" style="fill: none; stroke: #000000; stroke-width: 0.8; stroke-linejoin: miter; stroke-linecap: square"/>
   </g>
   <g id="patch_4">
    <path d="M 995.328 483.41952 
L 995.328 65.18016 
" style="fill: none; stroke: #000000; stroke-width: 0.8; stroke-linejoin: miter; stroke-linecap: square"/>
   </g>
   <g id="patch_5">
    <path d="M 138.24 483.41952 
L 995.328 483.41952 
" style="fill: none; stroke: #000000; stroke-width: 0.8; stroke-linejoin: miter; stroke-linecap: square"/>
   </g>
   <g id="patch_6">
    <path d="M 138.24 65.18016 
L 995.328 65.18016 
" style="fill: none; stroke: #000000; stroke-width: 0.8; stroke-linejoin: miter; stroke-linecap: square"/>
   </g>
   <g id="text_16">
    <!-- Resultado del Accuracy variando max_depth con entropy y n_estimators = 75 (Random Forest) -->
    <g transform="translate(280.88775 59.18016) scale(0.12 -0.12)">
     <defs>
      <path id="DejaVuSans-76" d="M 191 3500 
L 800 3500 
L 1894 563 
L 2988 3500 
L 3597 3500 
L 2284 0 
L 1503 0 
L 191 3500 
z
" transform="scale(0.015625)"/>
      <path id="DejaVuSans-5f" d="M 3263 -1063 
L 3263 -1509 
L -63 -1509 
L -63 -1063 
L 3263 -1063 
z
" transform="scale(0.015625)"/>
      <path id="DejaVuSans-68" d="M 3513 2113 
L 3513 0 
L 2938 0 
L 2938 2094 
Q 2938 2591 2744 2837 
Q 2550 3084 2163 3084 
Q 1697 3084 1428 2787 
Q 1159 2491 1159 1978 
L 1159 0 
L 581 0 
L 581 4863 
L 1159 4863 
L 1159 2956 
Q 1366 3272 1645 3428 
Q 1925 3584 2291 3584 
Q 2894 3584 3203 3211 
Q 3513 2838 3513 2113 
z
" transform="scale(0.015625)"/>
      <path id="DejaVuSans-3d" d="M 678 2906 
L 4684 2906 
L 4684 2381 
L 678 2381 
L 678 2906 
z
M 678 1631 
L 4684 1631 
L 4684 1100 
L 678 1100 
L 678 1631 
z
" transform="scale(0.015625)"/>
      <path id="DejaVuSans-35" d="M 691 4666 
L 3169 4666 
L 3169 4134 
L 1269 4134 
L 1269 2991 
Q 1406 3038 1543 3061 
Q 1681 3084 1819 3084 
Q 2600 3084 3056 2656 
Q 3513 2228 3513 1497 
Q 3513 744 3044 326 
Q 2575 -91 1722 -91 
Q 1428 -91 1123 -41 
Q 819 9 494 109 
L 494 744 
Q 775 591 1075 516 
Q 1375 441 1709 441 
Q 2250 441 2565 725 
Q 2881 1009 2881 1497 
Q 2881 1984 2565 2268 
Q 2250 2553 1709 2553 
Q 1456 2553 1204 2497 
Q 953 2441 691 2322 
L 691 4666 
z
" transform="scale(0.015625)"/>
     </defs>
     <use xlink:href="#DejaVuSans-52"/>
     <use xlink:href="#DejaVuSans-65" transform="translate(64.982422 0)"/>
     <use xlink:href="#DejaVuSans-73" transform="translate(126.505859 0)"/>
     <use xlink:href="#DejaVuSans-75" transform="translate(178.605469 0)"/>
     <use xlink:href="#DejaVuSans-6c" transform="translate(241.984375 0)"/>
     <use xlink:href="#DejaVuSans-74" transform="translate(269.767578 0)"/>
     <use xlink:href="#DejaVuSans-61" transform="translate(308.976562 0)"/>
     <use xlink:href="#DejaVuSans-64" transform="translate(370.255859 0)"/>
     <use xlink:href="#DejaVuSans-6f" transform="translate(433.732422 0)"/>
     <use xlink:href="#DejaVuSans-20" transform="translate(494.914062 0)"/>
     <use xlink:href="#DejaVuSans-64" transform="translate(526.701172 0)"/>
     <use xlink:href="#DejaVuSans-65" transform="translate(590.177734 0)"/>
     <use xlink:href="#DejaVuSans-6c" transform="translate(651.701172 0)"/>
     <use xlink:href="#DejaVuSans-20" transform="translate(679.484375 0)"/>
     <use xlink:href="#DejaVuSans-41" transform="translate(711.271484 0)"/>
     <use xlink:href="#DejaVuSans-63" transform="translate(777.929688 0)"/>
     <use xlink:href="#DejaVuSans-63" transform="translate(832.910156 0)"/>
     <use xlink:href="#DejaVuSans-75" transform="translate(887.890625 0)"/>
     <use xlink:href="#DejaVuSans-72" transform="translate(951.269531 0)"/>
     <use xlink:href="#DejaVuSans-61" transform="translate(992.382812 0)"/>
     <use xlink:href="#DejaVuSans-63" transform="translate(1053.662109 0)"/>
     <use xlink:href="#DejaVuSans-79" transform="translate(1108.642578 0)"/>
     <use xlink:href="#DejaVuSans-20" transform="translate(1167.822266 0)"/>
     <use xlink:href="#DejaVuSans-76" transform="translate(1199.609375 0)"/>
     <use xlink:href="#DejaVuSans-61" transform="translate(1258.789062 0)"/>
     <use xlink:href="#DejaVuSans-72" transform="translate(1320.068359 0)"/>
     <use xlink:href="#DejaVuSans-69" transform="translate(1361.181641 0)"/>
     <use xlink:href="#DejaVuSans-61" transform="translate(1388.964844 0)"/>
     <use xlink:href="#DejaVuSans-6e" transform="translate(1450.244141 0)"/>
     <use xlink:href="#DejaVuSans-64" transform="translate(1513.623047 0)"/>
     <use xlink:href="#DejaVuSans-6f" transform="translate(1577.099609 0)"/>
     <use xlink:href="#DejaVuSans-20" transform="translate(1638.28125 0)"/>
     <use xlink:href="#DejaVuSans-6d" transform="translate(1670.068359 0)"/>
     <use xlink:href="#DejaVuSans-61" transform="translate(1767.480469 0)"/>
     <use xlink:href="#DejaVuSans-78" transform="translate(1828.759766 0)"/>
     <use xlink:href="#DejaVuSans-5f" transform="translate(1887.939453 0)"/>
     <use xlink:href="#DejaVuSans-64" transform="translate(1937.939453 0)"/>
     <use xlink:href="#DejaVuSans-65" transform="translate(2001.416016 0)"/>
     <use xlink:href="#DejaVuSans-70" transform="translate(2062.939453 0)"/>
     <use xlink:href="#DejaVuSans-74" transform="translate(2126.416016 0)"/>
     <use xlink:href="#DejaVuSans-68" transform="translate(2165.625 0)"/>
     <use xlink:href="#DejaVuSans-20" transform="translate(2229.003906 0)"/>
     <use xlink:href="#DejaVuSans-63" transform="translate(2260.791016 0)"/>
     <use xlink:href="#DejaVuSans-6f" transform="translate(2315.771484 0)"/>
     <use xlink:href="#DejaVuSans-6e" transform="translate(2376.953125 0)"/>
     <use xlink:href="#DejaVuSans-20" transform="translate(2440.332031 0)"/>
     <use xlink:href="#DejaVuSans-65" transform="translate(2472.119141 0)"/>
     <use xlink:href="#DejaVuSans-6e" transform="translate(2533.642578 0)"/>
     <use xlink:href="#DejaVuSans-74" transform="translate(2597.021484 0)"/>
     <use xlink:href="#DejaVuSans-72" transform="translate(2636.230469 0)"/>
     <use xlink:href="#DejaVuSans-6f" transform="translate(2675.09375 0)"/>
     <use xlink:href="#DejaVuSans-70" transform="translate(2736.275391 0)"/>
     <use xlink:href="#DejaVuSans-79" transform="translate(2799.751953 0)"/>
     <use xlink:href="#DejaVuSans-20" transform="translate(2858.931641 0)"/>
     <use xlink:href="#DejaVuSans-79" transform="translate(2890.71875 0)"/>
     <use xlink:href="#DejaVuSans-20" transform="translate(2949.898438 0)"/>
     <use xlink:href="#DejaVuSans-6e" transform="translate(2981.685547 0)"/>
     <use xlink:href="#DejaVuSans-5f" transform="translate(3045.064453 0)"/>
     <use xlink:href="#DejaVuSans-65" transform="translate(3095.064453 0)"/>
     <use xlink:href="#DejaVuSans-73" transform="translate(3156.587891 0)"/>
     <use xlink:href="#DejaVuSans-74" transform="translate(3208.6875 0)"/>
     <use xlink:href="#DejaVuSans-69" transform="translate(3247.896484 0)"/>
     <use xlink:href="#DejaVuSans-6d" transform="translate(3275.679688 0)"/>
     <use xlink:href="#DejaVuSans-61" transform="translate(3373.091797 0)"/>
     <use xlink:href="#DejaVuSans-74" transform="translate(3434.371094 0)"/>
     <use xlink:href="#DejaVuSans-6f" transform="translate(3473.580078 0)"/>
     <use xlink:href="#DejaVuSans-72" transform="translate(3534.761719 0)"/>
     <use xlink:href="#DejaVuSans-73" transform="translate(3575.875 0)"/>
     <use xlink:href="#DejaVuSans-20" transform="translate(3627.974609 0)"/>
     <use xlink:href="#DejaVuSans-3d" transform="translate(3659.761719 0)"/>
     <use xlink:href="#DejaVuSans-20" transform="translate(3743.550781 0)"/>
     <use xlink:href="#DejaVuSans-37" transform="translate(3775.337891 0)"/>
     <use xlink:href="#DejaVuSans-35" transform="translate(3838.960938 0)"/>
     <use xlink:href="#DejaVuSans-20" transform="translate(3902.583984 0)"/>
     <use xlink:href="#DejaVuSans-28" transform="translate(3934.371094 0)"/>
     <use xlink:href="#DejaVuSans-52" transform="translate(3973.384766 0)"/>
     <use xlink:href="#DejaVuSans-61" transform="translate(4040.617188 0)"/>
     <use xlink:href="#DejaVuSans-6e" transform="translate(4101.896484 0)"/>
     <use xlink:href="#DejaVuSans-64" transform="translate(4165.275391 0)"/>
     <use xlink:href="#DejaVuSans-6f" transform="translate(4228.751953 0)"/>
     <use xlink:href="#DejaVuSans-6d" transform="translate(4289.933594 0)"/>
     <use xlink:href="#DejaVuSans-20" transform="translate(4387.345703 0)"/>
     <use xlink:href="#DejaVuSans-46" transform="translate(4419.132812 0)"/>
     <use xlink:href="#DejaVuSans-6f" transform="translate(4473.027344 0)"/>
     <use xlink:href="#DejaVuSans-72" transform="translate(4534.208984 0)"/>
     <use xlink:href="#DejaVuSans-65" transform="translate(4573.072266 0)"/>
     <use xlink:href="#DejaVuSans-73" transform="translate(4634.595703 0)"/>
     <use xlink:href="#DejaVuSans-74" transform="translate(4686.695312 0)"/>
     <use xlink:href="#DejaVuSans-29" transform="translate(4725.904297 0)"/>
    </g>
   </g>
   <g id="legend_1">
    <g id="patch_7">
     <path d="M 625.185813 478.41952 
L 988.328 478.41952 
Q 990.328 478.41952 990.328 476.41952 
L 990.328 414.069833 
Q 990.328 412.069833 988.328 412.069833 
L 625.185813 412.069833 
Q 623.185813 412.069833 623.185813 414.069833 
L 623.185813 476.41952 
Q 623.185813 478.41952 625.185813 478.41952 
z
" style="fill: #ffffff; opacity: 0.8; stroke: #cccccc; stroke-linejoin: miter"/>
    </g>
    <g id="PathCollection_2">
     <g>
      <use xlink:href="#mbf046b03ff" x="637.185813" y="421.04327" style="fill: #0000ff; stroke: #0000ff"/>
     </g>
    </g>
    <g id="text_17">
     <!-- Puntos de datos -->
     <g transform="translate(655.185813 423.66827) scale(0.1 -0.1)">
      <defs>
       <path id="DejaVuSans-50" d="M 1259 4147 
L 1259 2394 
L 2053 2394 
Q 2494 2394 2734 2622 
Q 2975 2850 2975 3272 
Q 2975 3691 2734 3919 
Q 2494 4147 2053 4147 
L 1259 4147 
z
M 628 4666 
L 2053 4666 
Q 2838 4666 3239 4311 
Q 3641 3956 3641 3272 
Q 3641 2581 3239 2228 
Q 2838 1875 2053 1875 
L 1259 1875 
L 1259 0 
L 628 0 
L 628 4666 
z
" transform="scale(0.015625)"/>
      </defs>
      <use xlink:href="#DejaVuSans-50"/>
      <use xlink:href="#DejaVuSans-75" transform="translate(58.552734 0)"/>
      <use xlink:href="#DejaVuSans-6e" transform="translate(121.931641 0)"/>
      <use xlink:href="#DejaVuSans-74" transform="translate(185.310547 0)"/>
      <use xlink:href="#DejaVuSans-6f" transform="translate(224.519531 0)"/>
      <use xlink:href="#DejaVuSans-73" transform="translate(285.701172 0)"/>
      <use xlink:href="#DejaVuSans-20" transform="translate(337.800781 0)"/>
      <use xlink:href="#DejaVuSans-64" transform="translate(369.587891 0)"/>
      <use xlink:href="#DejaVuSans-65" transform="translate(433.064453 0)"/>
      <use xlink:href="#DejaVuSans-20" transform="translate(494.587891 0)"/>
      <use xlink:href="#DejaVuSans-64" transform="translate(526.375 0)"/>
      <use xlink:href="#DejaVuSans-61" transform="translate(589.851562 0)"/>
      <use xlink:href="#DejaVuSans-74" transform="translate(651.130859 0)"/>
      <use xlink:href="#DejaVuSans-6f" transform="translate(690.339844 0)"/>
      <use xlink:href="#DejaVuSans-73" transform="translate(751.521484 0)"/>
     </g>
    </g>
    <g id="line2d_15">
     <path d="M 627.185813 452.882957 
L 637.185813 452.882957 
L 647.185813 452.882957 
" style="fill: none; stroke: #ff0000; stroke-width: 4; stroke-linecap: square"/>
    </g>
    <g id="text_18">
     <!-- Regresión:            7            6             5            4           3 -->
     <g transform="translate(655.185813 438.746395) scale(0.1 -0.1)">
      <defs>
       <path id="DejaVuSans-67" d="M 2906 1791 
Q 2906 2416 2648 2759 
Q 2391 3103 1925 3103 
Q 1463 3103 1205 2759 
Q 947 2416 947 1791 
Q 947 1169 1205 825 
Q 1463 481 1925 481 
Q 2391 481 2648 825 
Q 2906 1169 2906 1791 
z
M 3481 434 
Q 3481 -459 3084 -895 
Q 2688 -1331 1869 -1331 
Q 1566 -1331 1297 -1286 
Q 1028 -1241 775 -1147 
L 775 -588 
Q 1028 -725 1275 -790 
Q 1522 -856 1778 -856 
Q 2344 -856 2625 -561 
Q 2906 -266 2906 331 
L 2906 616 
Q 2728 306 2450 153 
Q 2172 0 1784 0 
Q 1141 0 747 490 
Q 353 981 353 1791 
Q 353 2603 747 3093 
Q 1141 3584 1784 3584 
Q 2172 3584 2450 3431 
Q 2728 3278 2906 2969 
L 2906 3500 
L 3481 3500 
L 3481 434 
z
" transform="scale(0.015625)"/>
       <path id="DejaVuSans-f3" d="M 1959 3097 
Q 1497 3097 1228 2736 
Q 959 2375 959 1747 
Q 959 1119 1226 758 
Q 1494 397 1959 397 
Q 2419 397 2687 759 
Q 2956 1122 2956 1747 
Q 2956 2369 2687 2733 
Q 2419 3097 1959 3097 
z
M 1959 3584 
Q 2709 3584 3137 3096 
Q 3566 2609 3566 1747 
Q 3566 888 3137 398 
Q 2709 -91 1959 -91 
Q 1206 -91 779 398 
Q 353 888 353 1747 
Q 353 2609 779 3096 
Q 1206 3584 1959 3584 
z
M 2394 5119 
L 3016 5119 
L 1998 3944 
L 1519 3944 
L 2394 5119 
z
" transform="scale(0.015625)"/>
       <path id="DejaVuSans-3a" d="M 750 794 
L 1409 794 
L 1409 0 
L 750 0 
L 750 794 
z
M 750 3309 
L 1409 3309 
L 1409 2516 
L 750 2516 
L 750 3309 
z
" transform="scale(0.015625)"/>
       <path id="DejaVuSans-33" d="M 2597 2516 
Q 3050 2419 3304 2112 
Q 3559 1806 3559 1356 
Q 3559 666 3084 287 
Q 2609 -91 1734 -91 
Q 1441 -91 1130 -33 
Q 819 25 488 141 
L 488 750 
Q 750 597 1062 519 
Q 1375 441 1716 441 
Q 2309 441 2620 675 
Q 2931 909 2931 1356 
Q 2931 1769 2642 2001 
Q 2353 2234 1838 2234 
L 1294 2234 
L 1294 2753 
L 1863 2753 
Q 2328 2753 2575 2939 
Q 2822 3125 2822 3475 
Q 2822 3834 2567 4026 
Q 2313 4219 1838 4219 
Q 1578 4219 1281 4162 
Q 984 4106 628 3988 
L 628 4550 
Q 988 4650 1302 4700 
Q 1616 4750 1894 4750 
Q 2613 4750 3031 4423 
Q 3450 4097 3450 3541 
Q 3450 3153 3228 2886 
Q 3006 2619 2597 2516 
z
" transform="scale(0.015625)"/>
      </defs>
      <use xlink:href="#DejaVuSans-52"/>
      <use xlink:href="#DejaVuSans-65" transform="translate(64.982422 0)"/>
      <use xlink:href="#DejaVuSans-67" transform="translate(126.505859 0)"/>
      <use xlink:href="#DejaVuSans-72" transform="translate(189.982422 0)"/>
      <use xlink:href="#DejaVuSans-65" transform="translate(228.845703 0)"/>
      <use xlink:href="#DejaVuSans-73" transform="translate(290.369141 0)"/>
      <use xlink:href="#DejaVuSans-69" transform="translate(342.46875 0)"/>
      <use xlink:href="#DejaVuSans-f3" transform="translate(370.251953 0)"/>
      <use xlink:href="#DejaVuSans-6e" transform="translate(431.433594 0)"/>
      <use xlink:href="#DejaVuSans-3a" transform="translate(494.8125 0)"/>
      <use xlink:href="#DejaVuSans-20" transform="translate(528.503906 0)"/>
      <use xlink:href="#DejaVuSans-20" transform="translate(560.291016 0)"/>
      <use xlink:href="#DejaVuSans-20" transform="translate(592.078125 0)"/>
      <use xlink:href="#DejaVuSans-20" transform="translate(623.865234 0)"/>
      <use xlink:href="#DejaVuSans-20" transform="translate(655.652344 0)"/>
      <use xlink:href="#DejaVuSans-20" transform="translate(687.439453 0)"/>
      <use xlink:href="#DejaVuSans-20" transform="translate(719.226562 0)"/>
      <use xlink:href="#DejaVuSans-20" transform="translate(751.013672 0)"/>
      <use xlink:href="#DejaVuSans-20" transform="translate(782.800781 0)"/>
      <use xlink:href="#DejaVuSans-20" transform="translate(814.587891 0)"/>
      <use xlink:href="#DejaVuSans-20" transform="translate(846.375 0)"/>
      <use xlink:href="#DejaVuSans-20" transform="translate(878.162109 0)"/>
      <use xlink:href="#DejaVuSans-37" transform="translate(909.949219 0)"/>
      <use xlink:href="#DejaVuSans-20" transform="translate(973.572266 0)"/>
      <use xlink:href="#DejaVuSans-20" transform="translate(1005.359375 0)"/>
      <use xlink:href="#DejaVuSans-20" transform="translate(1037.146484 0)"/>
      <use xlink:href="#DejaVuSans-20" transform="translate(1068.933594 0)"/>
      <use xlink:href="#DejaVuSans-20" transform="translate(1100.720703 0)"/>
      <use xlink:href="#DejaVuSans-20" transform="translate(1132.507812 0)"/>
      <use xlink:href="#DejaVuSans-20" transform="translate(1164.294922 0)"/>
      <use xlink:href="#DejaVuSans-20" transform="translate(1196.082031 0)"/>
      <use xlink:href="#DejaVuSans-20" transform="translate(1227.869141 0)"/>
      <use xlink:href="#DejaVuSans-20" transform="translate(1259.65625 0)"/>
      <use xlink:href="#DejaVuSans-20" transform="translate(1291.443359 0)"/>
      <use xlink:href="#DejaVuSans-20" transform="translate(1323.230469 0)"/>
      <use xlink:href="#DejaVuSans-36" transform="translate(1355.017578 0)"/>
      <use xlink:href="#DejaVuSans-20" transform="translate(1418.640625 0)"/>
      <use xlink:href="#DejaVuSans-20" transform="translate(1450.427734 0)"/>
      <use xlink:href="#DejaVuSans-20" transform="translate(1482.214844 0)"/>
      <use xlink:href="#DejaVuSans-20" transform="translate(1514.001953 0)"/>
      <use xlink:href="#DejaVuSans-20" transform="translate(1545.789062 0)"/>
      <use xlink:href="#DejaVuSans-20" transform="translate(1577.576172 0)"/>
      <use xlink:href="#DejaVuSans-20" transform="translate(1609.363281 0)"/>
      <use xlink:href="#DejaVuSans-20" transform="translate(1641.150391 0)"/>
      <use xlink:href="#DejaVuSans-20" transform="translate(1672.9375 0)"/>
      <use xlink:href="#DejaVuSans-20" transform="translate(1704.724609 0)"/>
      <use xlink:href="#DejaVuSans-20" transform="translate(1736.511719 0)"/>
      <use xlink:href="#DejaVuSans-20" transform="translate(1768.298828 0)"/>
      <use xlink:href="#DejaVuSans-20" transform="translate(1800.085938 0)"/>
      <use xlink:href="#DejaVuSans-35" transform="translate(1831.873047 0)"/>
      <use xlink:href="#DejaVuSans-20" transform="translate(1895.496094 0)"/>
      <use xlink:href="#DejaVuSans-20" transform="translate(1927.283203 0)"/>
      <use xlink:href="#DejaVuSans-20" transform="translate(1959.070312 0)"/>
      <use xlink:href="#DejaVuSans-20" transform="translate(1990.857422 0)"/>
      <use xlink:href="#DejaVuSans-20" transform="translate(2022.644531 0)"/>
      <use xlink:href="#DejaVuSans-20" transform="translate(2054.431641 0)"/>
      <use xlink:href="#DejaVuSans-20" transform="translate(2086.21875 0)"/>
      <use xlink:href="#DejaVuSans-20" transform="translate(2118.005859 0)"/>
      <use xlink:href="#DejaVuSans-20" transform="translate(2149.792969 0)"/>
      <use xlink:href="#DejaVuSans-20" transform="translate(2181.580078 0)"/>
      <use xlink:href="#DejaVuSans-20" transform="translate(2213.367188 0)"/>
      <use xlink:href="#DejaVuSans-20" transform="translate(2245.154297 0)"/>
      <use xlink:href="#DejaVuSans-34" transform="translate(2276.941406 0)"/>
      <use xlink:href="#DejaVuSans-20" transform="translate(2340.564453 0)"/>
      <use xlink:href="#DejaVuSans-20" transform="translate(2372.351562 0)"/>
      <use xlink:href="#DejaVuSans-20" transform="translate(2404.138672 0)"/>
      <use xlink:href="#DejaVuSans-20" transform="translate(2435.925781 0)"/>
      <use xlink:href="#DejaVuSans-20" transform="translate(2467.712891 0)"/>
      <use xlink:href="#DejaVuSans-20" transform="translate(2499.5 0)"/>
      <use xlink:href="#DejaVuSans-20" transform="translate(2531.287109 0)"/>
      <use xlink:href="#DejaVuSans-20" transform="translate(2563.074219 0)"/>
      <use xlink:href="#DejaVuSans-20" transform="translate(2594.861328 0)"/>
      <use xlink:href="#DejaVuSans-20" transform="translate(2626.648438 0)"/>
      <use xlink:href="#DejaVuSans-20" transform="translate(2658.435547 0)"/>
      <use xlink:href="#DejaVuSans-33" transform="translate(2690.222656 0)"/>
     </g>
     <!-- -1.57e-07 x + 1.23e-05 x - 0.0003993 x + 0.006947 x - 0.06968 x -->
     <g transform="translate(655.185813 449.944208) scale(0.1 -0.1)">
      <defs>
       <path id="DejaVuSans-2d" d="M 313 2009 
L 1997 2009 
L 1997 1497 
L 313 1497 
L 313 2009 
z
" transform="scale(0.015625)"/>
       <path id="DejaVuSans-2b" d="M 2944 4013 
L 2944 2272 
L 4684 2272 
L 4684 1741 
L 2944 1741 
L 2944 0 
L 2419 0 
L 2419 1741 
L 678 1741 
L 678 2272 
L 2419 2272 
L 2419 4013 
L 2944 4013 
z
" transform="scale(0.015625)"/>
       <path id="DejaVuSans-39" d="M 703 97 
L 703 672 
Q 941 559 1184 500 
Q 1428 441 1663 441 
Q 2288 441 2617 861 
Q 2947 1281 2994 2138 
Q 2813 1869 2534 1725 
Q 2256 1581 1919 1581 
Q 1219 1581 811 2004 
Q 403 2428 403 3163 
Q 403 3881 828 4315 
Q 1253 4750 1959 4750 
Q 2769 4750 3195 4129 
Q 3622 3509 3622 2328 
Q 3622 1225 3098 567 
Q 2575 -91 1691 -91 
Q 1453 -91 1209 -44 
Q 966 3 703 97 
z
M 1959 2075 
Q 2384 2075 2632 2365 
Q 2881 2656 2881 3163 
Q 2881 3666 2632 3958 
Q 2384 4250 1959 4250 
Q 1534 4250 1286 3958 
Q 1038 3666 1038 3163 
Q 1038 2656 1286 2365 
Q 1534 2075 1959 2075 
z
" transform="scale(0.015625)"/>
      </defs>
      <use xlink:href="#DejaVuSans-2d"/>
      <use xlink:href="#DejaVuSans-31" transform="translate(36.083984 0)"/>
      <use xlink:href="#DejaVuSans-2e" transform="translate(99.707031 0)"/>
      <use xlink:href="#DejaVuSans-35" transform="translate(131.494141 0)"/>
      <use xlink:href="#DejaVuSans-37" transform="translate(195.117188 0)"/>
      <use xlink:href="#DejaVuSans-65" transform="translate(258.740234 0)"/>
      <use xlink:href="#DejaVuSans-2d" transform="translate(320.263672 0)"/>
      <use xlink:href="#DejaVuSans-30" transform="translate(356.347656 0)"/>
      <use xlink:href="#DejaVuSans-37" transform="translate(419.970703 0)"/>
      <use xlink:href="#DejaVuSans-20" transform="translate(483.59375 0)"/>
      <use xlink:href="#DejaVuSans-78" transform="translate(515.380859 0)"/>
      <use xlink:href="#DejaVuSans-20" transform="translate(574.560547 0)"/>
      <use xlink:href="#DejaVuSans-2b" transform="translate(606.347656 0)"/>
      <use xlink:href="#DejaVuSans-20" transform="translate(690.136719 0)"/>
      <use xlink:href="#DejaVuSans-31" transform="translate(721.923828 0)"/>
      <use xlink:href="#DejaVuSans-2e" transform="translate(785.546875 0)"/>
      <use xlink:href="#DejaVuSans-32" transform="translate(817.333984 0)"/>
      <use xlink:href="#DejaVuSans-33" transform="translate(880.957031 0)"/>
      <use xlink:href="#DejaVuSans-65" transform="translate(944.580078 0)"/>
      <use xlink:href="#DejaVuSans-2d" transform="translate(1006.103516 0)"/>
      <use xlink:href="#DejaVuSans-30" transform="translate(1042.1875 0)"/>
      <use xlink:href="#DejaVuSans-35" transform="translate(1105.810547 0)"/>
      <use xlink:href="#DejaVuSans-20" transform="translate(1169.433594 0)"/>
      <use xlink:href="#DejaVuSans-78" transform="translate(1201.220703 0)"/>
      <use xlink:href="#DejaVuSans-20" transform="translate(1260.400391 0)"/>
      <use xlink:href="#DejaVuSans-2d" transform="translate(1292.1875 0)"/>
      <use xlink:href="#DejaVuSans-20" transform="translate(1328.271484 0)"/>
      <use xlink:href="#DejaVuSans-30" transform="translate(1360.058594 0)"/>
      <use xlink:href="#DejaVuSans-2e" transform="translate(1423.681641 0)"/>
      <use xlink:href="#DejaVuSans-30" transform="translate(1455.46875 0)"/>
      <use xlink:href="#DejaVuSans-30" transform="translate(1519.091797 0)"/>
      <use xlink:href="#DejaVuSans-30" transform="translate(1582.714844 0)"/>
      <use xlink:href="#DejaVuSans-33" transform="translate(1646.337891 0)"/>
      <use xlink:href="#DejaVuSans-39" transform="translate(1709.960938 0)"/>
      <use xlink:href="#DejaVuSans-39" transform="translate(1773.583984 0)"/>
      <use xlink:href="#DejaVuSans-33" transform="translate(1837.207031 0)"/>
      <use xlink:href="#DejaVuSans-20" transform="translate(1900.830078 0)"/>
      <use xlink:href="#DejaVuSans-78" transform="translate(1932.617188 0)"/>
      <use xlink:href="#DejaVuSans-20" transform="translate(1991.796875 0)"/>
      <use xlink:href="#DejaVuSans-2b" transform="translate(2023.583984 0)"/>
      <use xlink:href="#DejaVuSans-20" transform="translate(2107.373047 0)"/>
      <use xlink:href="#DejaVuSans-30" transform="translate(2139.160156 0)"/>
      <use xlink:href="#DejaVuSans-2e" transform="translate(2202.783203 0)"/>
      <use xlink:href="#DejaVuSans-30" transform="translate(2234.570312 0)"/>
      <use xlink:href="#DejaVuSans-30" transform="translate(2298.193359 0)"/>
      <use xlink:href="#DejaVuSans-36" transform="translate(2361.816406 0)"/>
      <use xlink:href="#DejaVuSans-39" transform="translate(2425.439453 0)"/>
      <use xlink:href="#DejaVuSans-34" transform="translate(2489.0625 0)"/>
      <use xlink:href="#DejaVuSans-37" transform="translate(2552.685547 0)"/>
      <use xlink:href="#DejaVuSans-20" transform="translate(2616.308594 0)"/>
      <use xlink:href="#DejaVuSans-78" transform="translate(2648.095703 0)"/>
      <use xlink:href="#DejaVuSans-20" transform="translate(2707.275391 0)"/>
      <use xlink:href="#DejaVuSans-2d" transform="translate(2739.0625 0)"/>
      <use xlink:href="#DejaVuSans-20" transform="translate(2775.146484 0)"/>
      <use xlink:href="#DejaVuSans-30" transform="translate(2806.933594 0)"/>
      <use xlink:href="#DejaVuSans-2e" transform="translate(2870.556641 0)"/>
      <use xlink:href="#DejaVuSans-30" transform="translate(2902.34375 0)"/>
      <use xlink:href="#DejaVuSans-36" transform="translate(2965.966797 0)"/>
      <use xlink:href="#DejaVuSans-39" transform="translate(3029.589844 0)"/>
      <use xlink:href="#DejaVuSans-36" transform="translate(3093.212891 0)"/>
      <use xlink:href="#DejaVuSans-38" transform="translate(3156.835938 0)"/>
      <use xlink:href="#DejaVuSans-20" transform="translate(3220.458984 0)"/>
      <use xlink:href="#DejaVuSans-78" transform="translate(3252.246094 0)"/>
     </g>
     <!--         2 -->
     <g transform="translate(655.185813 461.14202) scale(0.1 -0.1)">
      <use xlink:href="#DejaVuSans-20"/>
      <use xlink:href="#DejaVuSans-20" transform="translate(31.787109 0)"/>
      <use xlink:href="#DejaVuSans-20" transform="translate(63.574219 0)"/>
      <use xlink:href="#DejaVuSans-20" transform="translate(95.361328 0)"/>
      <use xlink:href="#DejaVuSans-20" transform="translate(127.148438 0)"/>
      <use xlink:href="#DejaVuSans-20" transform="translate(158.935547 0)"/>
      <use xlink:href="#DejaVuSans-20" transform="translate(190.722656 0)"/>
      <use xlink:href="#DejaVuSans-20" transform="translate(222.509766 0)"/>
      <use xlink:href="#DejaVuSans-32" transform="translate(254.296875 0)"/>
     </g>
     <!--  + 0.4 x - 1.197 x + 2.229 -->
     <g transform="translate(655.185813 472.339832) scale(0.1 -0.1)">
      <use xlink:href="#DejaVuSans-20"/>
      <use xlink:href="#DejaVuSans-2b" transform="translate(31.787109 0)"/>
      <use xlink:href="#DejaVuSans-20" transform="translate(115.576172 0)"/>
      <use xlink:href="#DejaVuSans-30" transform="translate(147.363281 0)"/>
      <use xlink:href="#DejaVuSans-2e" transform="translate(210.986328 0)"/>
      <use xlink:href="#DejaVuSans-34" transform="translate(242.773438 0)"/>
      <use xlink:href="#DejaVuSans-20" transform="translate(306.396484 0)"/>
      <use xlink:href="#DejaVuSans-78" transform="translate(338.183594 0)"/>
      <use xlink:href="#DejaVuSans-20" transform="translate(397.363281 0)"/>
      <use xlink:href="#DejaVuSans-2d" transform="translate(429.150391 0)"/>
      <use xlink:href="#DejaVuSans-20" transform="translate(465.234375 0)"/>
      <use xlink:href="#DejaVuSans-31" transform="translate(497.021484 0)"/>
      <use xlink:href="#DejaVuSans-2e" transform="translate(560.644531 0)"/>
      <use xlink:href="#DejaVuSans-31" transform="translate(592.431641 0)"/>
      <use xlink:href="#DejaVuSans-39" transform="translate(656.054688 0)"/>
      <use xlink:href="#DejaVuSans-37" transform="translate(719.677734 0)"/>
      <use xlink:href="#DejaVuSans-20" transform="translate(783.300781 0)"/>
      <use xlink:href="#DejaVuSans-78" transform="translate(815.087891 0)"/>
      <use xlink:href="#DejaVuSans-20" transform="translate(874.267578 0)"/>
      <use xlink:href="#DejaVuSans-2b" transform="translate(906.054688 0)"/>
      <use xlink:href="#DejaVuSans-20" transform="translate(989.84375 0)"/>
      <use xlink:href="#DejaVuSans-32" transform="translate(1021.630859 0)"/>
      <use xlink:href="#DejaVuSans-2e" transform="translate(1085.253906 0)"/>
      <use xlink:href="#DejaVuSans-32" transform="translate(1117.041016 0)"/>
      <use xlink:href="#DejaVuSans-32" transform="translate(1180.664062 0)"/>
      <use xlink:href="#DejaVuSans-39" transform="translate(1244.287109 0)"/>
     </g>
    </g>
   </g>
  </g>
 </g>
 <defs>
  <clipPath id="pe47c9eeaff">
   <rect x="138.24" y="65.18016" width="857.088" height="418.23936"/>
  </clipPath>
 </defs>
</svg>
